<?xml version="1.0" encoding="UTF-8" standalone="no"?>
<!DOCTYPE svg PUBLIC "-//W3C//DTD SVG 1.1//EN"
 "http://www.w3.org/Graphics/SVG/1.1/DTD/svg11.dtd">
<!-- Generated by graphviz version 2.43.0 (0)
 -->
<!-- Title: Class Diagram Pages: 1 -->
<svg width="480pt" height="351pt"
 viewBox="0.00 0.00 480.00 351.00" xmlns="http://www.w3.org/2000/svg" xmlns:xlink="http://www.w3.org/1999/xlink">
<g id="graph0" class="graph" transform="scale(1 1) rotate(0) translate(4 347)">
<title>Class Diagram</title>
<polygon fill="white" stroke="transparent" points="-4,4 -4,-347 476,-347 476,4 -4,4"/>
<g id="clust1" class="cluster">
<title>cluster_main</title>
<polygon fill="none" stroke="black" points="8,-8 8,-335 464,-335 464,-8 8,-8"/>
<text text-anchor="middle" x="236" y="-319.8" font-family="Times,serif" font-size="14.00">Class Diagram</text>
</g>
<!-- Convertible -->
<g id="node1" class="node">
<title>Convertible</title>
<polygon fill="lightyellow" stroke="black" points="16,-16.5 16,-52.5 96,-52.5 96,-16.5 16,-16.5"/>
<text text-anchor="middle" x="56" y="-30.8" font-family="Times,serif" font-size="14.00">Convertible</text>
</g>
<!-- SUV -->
<g id="node2" class="node">
<title>SUV</title>
<polygon fill="lightyellow" stroke="black" points="132,-16.5 132,-52.5 186,-52.5 186,-16.5 132,-16.5"/>
<text text-anchor="middle" x="159" y="-30.8" font-family="Times,serif" font-size="14.00">SUV</text>
</g>
<!-- Wheel -->
<g id="node3" class="node">
<title>Wheel</title>
<polygon fill="lightyellow" stroke="black" points="312,-16.5 312,-52.5 366,-52.5 366,-16.5 312,-16.5"/>
<text text-anchor="middle" x="339" y="-30.8" font-family="Times,serif" font-size="14.00">Wheel</text>
</g>
<!-- Wing -->
<g id="node4" class="node">
<title>Wing</title>
<polygon fill="lightyellow" stroke="black" points="402,-16.5 402,-52.5 456,-52.5 456,-16.5 402,-16.5"/>
<text text-anchor="middle" x="429" y="-30.8" font-family="Times,serif" font-size="14.00">Wing</text>
</g>
<!-- Vehicle -->
<g id="node5" class="node">
<title>Vehicle</title>
<polygon fill="lightyellow" stroke="black" points="291.5,-267.5 291.5,-303.5 350.5,-303.5 350.5,-267.5 291.5,-267.5"/>
<text text-anchor="middle" x="321" y="-281.8" font-family="Times,serif" font-size="14.00">Vehicle</text>
</g>
<!-- Car -->
<g id="node6" class="node">
<title>Car</title>
<polygon fill="lightyellow" stroke="black" points="190.5,-125.5 190.5,-194.5 255.5,-194.5 255.5,-125.5 190.5,-125.5"/>
<text text-anchor="start" x="198.5" y="-179.3" font-family="Times,serif" font-size="14.00">Car</text>
<polyline fill="none" stroke="black" points="190.5,-171.5 255.5,-171.5 "/>
<text text-anchor="start" x="198.5" y="-156.3" font-family="Times,serif" font-size="14.00">+ drive()</text>
<polyline fill="none" stroke="black" points="190.5,-148.5 255.5,-148.5 "/>
<text text-anchor="start" x="198.5" y="-133.3" font-family="Times,serif" font-size="14.00"># brand</text>
</g>
<!-- Vehicle&#45;&gt;Car -->
<g id="edge3" class="edge">
<title>Vehicle&#45;&gt;Car:n</title>
<path fill="none" stroke="black" d="M282.27,-267.76C254.87,-253.02 223,-228.64 223,-195"/>
<polygon fill="none" stroke="black" points="280.83,-270.96 291.33,-272.39 284.02,-264.72 280.83,-270.96"/>
</g>
<!-- Bicycle -->
<g id="node7" class="node">
<title>Bicycle</title>
<polygon fill="lightyellow" stroke="black" points="292,-142 292,-178 350,-178 350,-142 292,-142"/>
<text text-anchor="middle" x="321" y="-156.3" font-family="Times,serif" font-size="14.00">Bicycle</text>
</g>
<!-- Vehicle&#45;&gt;Bicycle -->
<g id="edge4" class="edge">
<title>Vehicle&#45;&gt;Bicycle:n</title>
<path fill="none" stroke="black" d="M321,-257.07C321,-235.78 321,-205.52 321,-179"/>
<polygon fill="none" stroke="black" points="317.5,-257.32 321,-267.32 324.5,-257.32 317.5,-257.32"/>
</g>
<!-- Airplane -->
<g id="node8" class="node">
<title>Airplane</title>
<polygon fill="lightyellow" stroke="black" points="386,-125.5 386,-194.5 456,-194.5 456,-125.5 386,-125.5"/>
<text text-anchor="start" x="394" y="-179.3" font-family="Times,serif" font-size="14.00">Airplane</text>
<polyline fill="none" stroke="black" points="386,-171.5 456,-171.5 "/>
<text text-anchor="start" x="394" y="-156.3" font-family="Times,serif" font-size="14.00">+ fly()</text>
<polyline fill="none" stroke="black" points="386,-148.5 456,-148.5 "/>
<text text-anchor="start" x="394" y="-133.3" font-family="Times,serif" font-size="14.00">+ country</text>
</g>
<!-- Vehicle&#45;&gt;Airplane -->
<g id="edge5" class="edge">
<title>Vehicle&#45;&gt;Airplane:n</title>
<path fill="none" stroke="black" d="M360.01,-268.24C388.07,-253.64 421,-229.22 421,-195"/>
<polygon fill="none" stroke="black" points="358.15,-265.25 350.73,-272.81 361.25,-271.53 358.15,-265.25"/>
</g>
<!-- Car&#45;&gt;Convertible -->
<g id="edge1" class="edge">
<title>Car&#45;&gt;Convertible:n</title>
<path fill="none" stroke="black" d="M180.58,-151.26C131.1,-139.51 56,-111.95 56,-53"/>
<polygon fill="none" stroke="black" points="179.88,-154.69 190.4,-153.47 181.42,-147.86 179.88,-154.69"/>
</g>
<!-- Car&#45;&gt;SUV -->
<g id="edge2" class="edge">
<title>Car&#45;&gt;SUV:n</title>
<path fill="none" stroke="black" d="M184.02,-117.6C170.66,-99.24 159,-76.49 159,-53"/>
<polygon fill="none" stroke="black" points="181.39,-119.91 190.25,-125.71 186.94,-115.65 181.39,-119.91"/>
</g>
<!-- Car&#45;&gt;Wheel -->
<g id="edge7" class="edge">
<title>Car&#45;&gt;Wheel</title>
<path fill="none" stroke="black" d="M262.99,-116.42C280.71,-97.56 300.9,-76.06 316.03,-59.96"/>
<polygon fill="none" stroke="black" points="262.91,-116.51 261.72,-123.62 254.7,-125.25 255.89,-118.14 262.91,-116.51"/>
<polygon fill="black" stroke="black" points="323.01,-52.53 319.44,-62.9 319.58,-56.17 316.16,-59.82 316.16,-59.82 316.16,-59.82 319.58,-56.17 312.88,-56.73 323.01,-52.53 323.01,-52.53"/>
<text text-anchor="middle" x="315.2" y="-72.57" font-family="Times,serif" font-size="14.00">4..*</text>
<text text-anchor="middle" x="262.51" y="-97.8" font-family="Times,serif" font-size="14.00">wheels</text>
</g>
<!-- Sedan -->
<g id="node9" class="node">
<title>Sedan</title>
<polygon fill="lightyellow" stroke="black" points="222,-16.5 222,-52.5 276,-52.5 276,-16.5 222,-16.5"/>
<text text-anchor="middle" x="249" y="-30.8" font-family="Times,serif" font-size="14.00">Sedan</text>
</g>
<!-- Car&#45;&gt;Sedan -->
<g id="edge6" class="edge">
<title>Car&#45;&gt;Sedan:n</title>
<path fill="none" stroke="black" d="M238.69,-115.33C244.18,-96.43 249,-73.88 249,-53"/>
<polygon fill="none" stroke="black" points="235.27,-114.56 235.7,-125.14 241.97,-116.6 235.27,-114.56"/>
</g>
<!-- Bicycle&#45;&gt;Wheel -->
<g id="edge8" class="edge">
<title>Bicycle&#45;&gt;Wheel</title>
<path fill="none" stroke="black" d="M325.24,-129.88C328.22,-109.48 332.16,-82.41 335.07,-62.49"/>
<polygon fill="none" stroke="black" points="325.23,-129.95 328.33,-136.47 323.5,-141.83 320.41,-135.31 325.23,-129.95"/>
<polygon fill="black" stroke="black" points="336.52,-52.53 339.53,-63.07 335.8,-57.47 335.08,-62.42 335.08,-62.42 335.08,-62.42 335.8,-57.47 330.62,-61.77 336.52,-52.53 336.52,-52.53"/>
<text text-anchor="middle" x="343.71" y="-72.77" font-family="Times,serif" font-size="14.00">2..2</text>
<text text-anchor="middle" x="316.32" y="-114.18" font-family="Times,serif" font-size="14.00">wheels</text>
</g>
<!-- Airplane&#45;&gt;Wing -->
<g id="edge9" class="edge">
<title>Airplane&#45;&gt;Wing</title>
<path fill="none" stroke="black" d="M423.97,-113.18C425.07,-96.14 426.29,-77.36 427.25,-62.54"/>
<polygon fill="black" stroke="black" points="423.96,-113.28 427.57,-119.52 423.19,-125.25 419.58,-119.01 423.96,-113.28"/>
<polygon fill="black" stroke="black" points="427.9,-52.53 431.74,-62.8 427.57,-57.52 427.25,-62.51 427.25,-62.51 427.25,-62.51 427.57,-57.52 422.76,-62.21 427.9,-52.53 427.9,-52.53"/>
<text text-anchor="middle" x="436.98" y="-72.12" font-family="Times,serif" font-size="14.00">2..*</text>
<text text-anchor="middle" x="414.11" y="-98.26" font-family="Times,serif" font-size="14.00">wings</text>
</g>
</g>
</svg>
